# xmcd
#
# Track frame offsets: 
#        150
#        14526
#        30250
#        41241
#        53148
#        66294
#        78068
#        88949
#        99281
#        110107
#        121521
#        130552
#        139450
#        154030
#        166212
#        178511
#        187864
#        197883
#        211178
#        221173
#        231082
#        240552
#        249246
#        258270
#        269974
#        280095
#        293241
#        305368
#        317048
#        328791
#
# Disc length: 4489 seconds
#
# Revision: 2
# Processed by: cddbd v1.5.2PL0 Copyright (c) Steve Scherf et al.
# Submitted via: ExactAudioCopy v1.3
#
DISCID=ac11871e
DTITLE=Flatt and Scruggs - Flatt and Scruggs 1964-1969,Plus Bear Family Re
DTITLE=cords [CD2]
DYEAR=1995
DGENRE=Bluegrass
TTITLE0=Rock, Salt and Nails
TTITLE1=The Soldier's Return
TTITLE2=Memphis
TTITLE3=Jackson
TTITLE4=Colours
TTITLE5=For Lovin' Me
TTITLE6=Houston
TTITLE7=Detroit City
TTITLE8=Foggy Mountain Breakdown
TTITLE9=Kansas City
TTITLE10=Nashville Blues
TTITLE11=Take Me Back To Tulsa
TTITLE12=The Last Public Hanging In West Virginia
TTITLE13=The Boys From Tennessee
TTITLE14=Ten Miles From Natchez
TTITLE15=Seattle Town
TTITLE16=Green Acres
TTITLE17=I Had A Dream
TTITLE18=When The Saints Go Marching In
TTITLE19=God Gave Noah The Rainbow Sign
TTITLE20=Call Me On Home, Too
TTITLE21=A Stone That Builders Refused
TTITLE22=Wait For The Sunshine
TTITLE23=No Mother In This World
TTITLE24=Thank God I'm On My Way
TTITLE25=Troublesome Waters
TTITLE26=The Last Thing On My Mind
TTITLE27=Mama, You Been On My Mind
TTITLE28=It Was Only The Wind
TTITLE29=Why Can't I Find Myself With You
EXTD=
EXTT0=
EXTT1=
EXTT2=
EXTT3=
EXTT4=
EXTT5=
EXTT6=
EXTT7=
EXTT8=
EXTT9=
EXTT10=
EXTT11=
EXTT12=
EXTT13=
EXTT14=
EXTT15=
EXTT16=
EXTT17=
EXTT18=
EXTT19=
EXTT20=
EXTT21=
EXTT22=
EXTT23=
EXTT24=
EXTT25=
EXTT26=
EXTT27=
EXTT28=
EXTT29=
PLAYORDER=
